<svg width="256" height="256" viewBox="0 0 256 256" fill="none" xmlns="http://www.w3.org/2000/svg">
    <rect width="256" height="256" rx="60" fill="#242938"/>
    <rect x="60.9" y="99" width="132.4" height="66" fill="#fff"/>
    <path d="M103,108.8v19.2l-13.8-13.8c1.5-1,2.9-1.9,4.2-2.6,1.3-.7,2.6-1.2,3.7-1.6,1.1-.4,2.2-.7,3.2-.9,1-.2,1.9-.3,2.7-.3M173.6,110.4s.2-.1.4-.3c.2-.2.6-.4,1.1-.6.5-.2,1.1-.4,1.8-.5.7-.1,1.6-.2,2.6-.2s1.7,0,2.7.2c1,.2,2.1.4,3.2.9,1.2.4,2.4.9,3.7,1.6,1.3.7,2.8,1.6,4.3,2.6l-10.5,10.3-34.7,34.8-15.3-15.3-20.5,21.1-51.5-50.9c1.5-1.1,2.9-1.9,4.3-2.6,1.3-.7,2.6-1.2,3.7-1.6,1.2-.4,2.2-.7,3.2-.9,1-.2,1.9-.2,2.7-.2s1.8,0,2.6.2c.7.1,1.3.3,1.8.5.5.2.8.4,1.1.6s.4.3.4.3l23.3,23.3,8.3,8,23.1-23.1,8-8.3s.2-.1.4-.3c.2-.2.6-.4,1.1-.6.5-.2,1.1-.4,1.8-.5.7-.1,1.6-.2,2.6-.2s1.7,0,2.7.2c1,.2,2.1.4,3.2.9,1.2.4,2.4.9,3.7,1.6,1.3.7,2.8,1.6,4.3,2.6l-18.4,18.1,3.4,3.4,16-16,9.3-9.2M173.5,206.8l45.4-78.8-45.4-78.8h-91l-45.4,78.8,45.4,78.8h91Z"
          fill="#0d597f"/>
</svg>
